<?xml version="1.0" encoding="UTF-8" standalone="no"?><!DOCTYPE svg PUBLIC "-//W3C//DTD SVG 1.1//EN" "http://www.w3.org/Graphics/SVG/1.1/DTD/svg11.dtd"><svg width="100%" height="100%" viewBox="0 0 4409 2205" version="1.1" xmlns="http://www.w3.org/2000/svg" xmlns:xlink="http://www.w3.org/1999/xlink" xml:space="preserve" xmlns:serif="http://www.serif.com/" style="fill-rule:evenodd;clip-rule:evenodd;"><rect x="-0" y="0" width="4416.67" height="2204.17" style="fill:#132234;"/><path d="M4704.17,2143.75c-2985,68.446 -5875.39,-438.592 -8750,-1041.67" style="fill:none;fill-rule:nonzero;stroke:#fff;stroke-opacity:0.18;stroke-width:4.17px;"/><path d="M4704.17,2143.75c-3039.87,-444.628 -5898.7,-1460.42 -8750,-2500" style="fill:none;fill-rule:nonzero;stroke:#fff;stroke-opacity:0.18;stroke-width:4.17px;"/><path d="M4704.17,2143.75c-2982.74,-1096.08 -5866.68,-2630.03 -8750,-4166.67" style="fill:none;fill-rule:nonzero;stroke:#fff;stroke-opacity:0.18;stroke-width:4.17px;"/><path d="M4704.17,2143.75c-2046.43,-1150.85 -3862.84,-2621.08 -5625,-4166.67" style="fill:none;fill-rule:nonzero;stroke:#fff;stroke-opacity:0.18;stroke-width:4.17px;"/><path d="M4704.17,2143.75c-1345.37,-1196.71 -2410.82,-2623.06 -3333.33,-4166.67" style="fill:none;fill-rule:nonzero;stroke:#fff;stroke-opacity:0.18;stroke-width:4.17px;"/><path d="M4704.17,2143.75c-779.714,-1201.48 -1208.91,-2626.7 -1458.33,-4166.67" style="fill:none;fill-rule:nonzero;stroke:#fff;stroke-opacity:0.18;stroke-width:4.17px;"/><path d="M7333.33,120.833c-1426.7,633.675 -2906.46,1182.08 -4166.67,2083.33" style="fill:none;fill-rule:nonzero;stroke:#fff;stroke-opacity:0.18;stroke-width:4.17px;"/><path d="M6333.33,120.833c-1462.37,608.016 -2938.93,1199.34 -4166.67,2083.33" style="fill:none;fill-rule:nonzero;stroke:#fff;stroke-opacity:0.18;stroke-width:4.17px;"/><path d="M4883.33,120.833c-1560.43,540.992 -2975.24,1212.25 -4166.67,2083.33" style="fill:none;fill-rule:nonzero;stroke:#fff;stroke-opacity:0.18;stroke-width:4.17px;"/><path d="M3208.33,-0c-1609.29,453.082 -2896.85,1258.49 -4166.67,2083.33" style="fill:none;fill-rule:nonzero;stroke:#fff;stroke-opacity:0.18;stroke-width:4.17px;"/><path d="M1287.5,-106.25c-1581.99,435.293 -2814.78,1339.23 -4166.67,2083.33" style="fill:none;fill-rule:nonzero;stroke:#fff;stroke-opacity:0.18;stroke-width:4.17px;"/></svg>