<?xml version="1.0" encoding="UTF-8" standalone="no"?><!DOCTYPE svg PUBLIC "-//W3C//DTD SVG 1.1//EN" "http://www.w3.org/Graphics/SVG/1.1/DTD/svg11.dtd"><svg width="100%" height="100%" viewBox="0 0 4167 2084" version="1.1" xmlns="http://www.w3.org/2000/svg" xmlns:xlink="http://www.w3.org/1999/xlink" xml:space="preserve" xmlns:serif="http://www.serif.com/" style="fill-rule:evenodd;clip-rule:evenodd;stroke-linejoin:round;stroke-miterlimit:2;"><path d="M3547.22,384.062c4.263,-1.405 8.384,-2.792 12.333,-4.051c34.136,-10.882 66.472,-26.687 102.18,-29.313c19.057,-1.401 45.919,-2.771 63.746,7.134c7.648,4.25 14.668,12.153 19.824,19.381c2.159,3.027 6.813,12.293 3.608,10.968c-4.445,-1.839 -7.706,-6.401 -11.987,-8.7c-10.529,-5.654 -22.794,-6.929 -34.224,-6.793c0.065,0.133 0.121,0.269 0.168,0.409c-22.879,-0.034 -47.494,14.051 -68.239,21.841c-14.887,5.59 -29.828,11.009 -44.895,15.934c-11.844,3.873 -38.957,11.29 -52.383,13.386c-64.366,10.047 -151.307,9.799 -187.699,-64.858c-4.605,-9.448 -9.436,-22.671 -11.657,-33.13c-13.856,-65.259 3.098,-136.992 52.245,-176.768c12.907,-10.446 25.924,-16.564 41.423,-20.08c31.061,-7.045 76.081,-5.874 105.191,4.965c7.473,2.782 18.456,9.362 26.445,15.423c4.641,3.521 31.581,24.282 38.445,42.413l-38.445,12.852c-13.172,-23.134 -33.13,-31.068 -44.142,-35.987c-13.466,-6.014 -52.907,-7.563 -77.538,2.794c-49.328,20.739 -71.073,79.289 -56.665,147.769c4.287,20.375 9.606,26.801 20.647,38.181c3.604,3.715 12.255,10.551 16.222,13.216c0.091,0.061 -9.629,-0.061 -9.538,-0l28.24,0.183l-0,14.864c0.365,0.141 0.729,0.279 1.094,0.415l-0,-90.321l34.456,0l0,97.639c0.379,0.031 0.758,0.061 1.138,0.09l0,-123.548l34.501,0l0,123.055c0.336,-0.053 0.671,-0.107 1.005,-0.162l0,-72.727l34.501,0l0,63.526Z" style="fill:url(#_Linear1);"/><defs><linearGradient id="_Linear1" x1="0" y1="0" x2="1" y2="0" gradientUnits="userSpaceOnUse" gradientTransform="matrix(416.667,0,0,303.748,3333.33,277.009)"><stop offset="0" style="stop-color:#3ea9da;stop-opacity:1"/><stop offset="1" style="stop-color:#fff;stop-opacity:1"/></linearGradient></defs></svg>