<?xml version="1.0" encoding="UTF-8" standalone="no"?><!DOCTYPE svg PUBLIC "-//W3C//DTD SVG 1.1//EN" "http://www.w3.org/Graphics/SVG/1.1/DTD/svg11.dtd"><svg width="100%" height="100%" viewBox="0 0 417 304" version="1.1" xmlns="http://www.w3.org/2000/svg" xmlns:xlink="http://www.w3.org/1999/xlink" xml:space="preserve" xmlns:serif="http://www.serif.com/" style="fill-rule:evenodd;clip-rule:evenodd;stroke-linejoin:round;stroke-miterlimit:2;"><path d="M213.883,259.062c4.263,-1.405 8.383,-2.792 12.332,-4.051c34.136,-10.882 66.473,-26.687 102.18,-29.313c19.058,-1.401 45.92,-2.771 63.746,7.134c7.648,4.25 14.669,12.153 19.824,19.381c2.159,3.027 6.814,12.293 3.609,10.968c-4.446,-1.839 -7.706,-6.401 -11.988,-8.7c-10.529,-5.654 -22.793,-6.929 -34.224,-6.793c0.066,0.133 0.122,0.269 0.168,0.409c-22.879,-0.034 -47.493,14.051 -68.239,21.841c-14.886,5.59 -29.828,11.009 -44.894,15.934c-11.845,3.873 -38.957,11.29 -52.383,13.386c-64.367,10.047 -151.307,9.799 -187.699,-64.858c-4.606,-9.448 -9.436,-22.671 -11.657,-33.13c-13.856,-65.259 3.098,-136.992 52.245,-176.768c12.907,-10.446 25.924,-16.564 41.423,-20.08c31.06,-7.045 76.081,-5.874 105.191,4.965c7.472,2.782 18.455,9.362 26.444,15.423c4.642,3.521 31.582,24.282 38.446,42.413l-38.446,12.852c-13.171,-23.134 -33.13,-31.068 -44.141,-35.987c-13.466,-6.014 -52.907,-7.563 -77.539,2.794c-49.328,20.739 -71.072,79.289 -56.664,147.769c4.286,20.375 9.605,26.801 20.646,38.181c3.605,3.715 12.256,10.551 16.223,13.216c0.091,0.061 -9.629,-0.061 -9.538,-0l28.24,0.183l-0,14.864c0.364,0.141 0.729,0.279 1.093,0.415l0,-90.321l34.457,0l-0,97.639c0.378,0.031 0.758,0.061 1.138,0.09l0,-123.548l34.501,0l0,123.055c0.335,-0.053 0.67,-0.107 1.005,-0.162l-0,-72.727l34.501,0l-0,63.526Z" style="fill:url(#_Linear1);"/><defs><linearGradient id="_Linear1" x1="0" y1="0" x2="1" y2="0" gradientUnits="userSpaceOnUse" gradientTransform="matrix(416.667,0,0,303.748,4.54747e-13,152.009)"><stop offset="0" style="stop-color:#3ea9da;stop-opacity:1"/><stop offset="1" style="stop-color:#fff;stop-opacity:1"/></linearGradient></defs></svg>